<svg viewBox="0 0 128 128" fill="none" xmlns="http://www.w3.org/2000/svg">
    <path d="M64 12L112 36V92L64 116L16 92V36L64 12Z" fill="#1A1A2E" stroke="#33334F" stroke-width="2"/>
    <path d="M64 24L96 40V88L64 104L32 88V40L64 24Z" fill="#2D2D44" stroke="#4F4F6F" stroke-width="1.5"/>
    <path d="M64 40C72 40 84 56 84 72C84 88 72 96 64 96C56 96 44 88 44 72C44 56 56 40 64 40Z" stroke="#A855F7" stroke-width="4" stroke-linecap="round" stroke-linejoin="round"/>
    <path d="M64 56C68 56 72 64 72 72C72 80 68 88 64 88C60 88 56 80 56 72C56 64 60 56 64 56Z" stroke="#A855F7" stroke-width="3" stroke-linecap="round" stroke-linejoin="round"/>
    <path d="M64 40V28" stroke="#A855F7" stroke-width="3" stroke-linecap="round" stroke-linejoin="round"/>
    <path d="M64 108V96" stroke="#A855F7" stroke-width="3" stroke-linecap="round" stroke-linejoin="round"/>
</svg>